<svg width="233" height="193" viewBox="0 0 233 193" fill="none" xmlns="http://www.w3.org/2000/svg">
<path d="M218.847 191.284H28.6308V192.53H218.847V191.284Z" fill="#B0E23C"/>
<path d="M93.2053 141.438C94.8557 128.561 88.8604 107.144 86.7066 101.258C84.7013 95.7747 82.4896 87.5045 82.4525 83.6455C82.447 83.3864 82.4552 83.1271 82.4773 82.8688C82.4627 82.1773 82.2397 81.5065 81.8377 80.9456L80.7319 85.44L77.8972 79.7368L78.9164 77.3899C78.611 77.0783 78.2975 76.7627 77.9756 76.4511C75.7273 74.3187 73.3738 72.3016 70.924 70.4073V69.5765L48.2301 74.9765L48.1064 75.072C46.3708 76.5946 45.0201 78.5111 44.1659 80.6631C44.0008 81.0577 43.844 81.4939 43.6955 81.9093L45.3996 83.4669L43.1674 83.7868C43.1674 83.874 43.1261 83.9654 43.1096 84.0568L46.101 90.9438L43.547 96.0863C43.6872 96.6761 43.8482 97.2826 44.0297 97.9015C44.3722 99.0687 44.7807 100.286 45.2676 101.553C47.0913 106.292 45.8824 110.849 42.7919 113.325C39.7014 115.8 34.7913 126.339 40.638 133.155C46.4848 139.971 45.5605 148.333 43.1137 153.6C40.7205 158.714 36.5903 165.871 45.086 175.075C45.3418 175.35 45.6059 175.628 45.8824 175.906H59.115L59.1892 175.711C59.247 175.57 59.3295 175.354 59.4368 175.075C60.489 172.384 63.8765 163.785 66.1913 158.876C68.0109 155.012 70.6228 146.879 71.4233 136.931C71.5636 137.143 71.708 137.346 71.8359 137.558C73.0242 139.245 74.3116 140.777 75.4463 142.269C79.5724 147.669 77.4598 148.969 75.306 160.13C73.6885 168.5 77.8312 172.969 79.9974 174.668C80.3858 174.98 80.7999 175.258 81.2353 175.499L92.3759 175.084C92.4378 174.959 92.4956 174.818 92.5533 174.668C94.3936 169.592 92.0582 150.389 93.2053 141.438Z" fill="#B0E23C"/>
<path d="M47.8175 75.1386V67.292H49.0553V73.5684L69.7109 68.7417L67.7881 63.1132L68.9558 62.7103L71.3283 69.643L47.8175 75.1386Z" fill="#B0E23C"/>
<path d="M78.2932 32.6447C76.388 30.6751 74.073 29.1548 71.5146 28.1931C68.9563 27.2314 66.2181 26.8522 63.4968 27.0827L57.0517 27.6227L57.1549 28.8688L63.5958 28.3288C66.1356 28.1117 68.6916 28.4644 71.0797 29.3616C73.4678 30.2587 75.6285 31.6779 77.4061 33.517L104.923 61.8918L88.1217 79.2008L78.5862 65.759L87.3584 59.0298L70.8826 43.7188L67.9943 34.2937L66.8142 34.6593L74.6539 60.3507L43.7078 68.0561C43.9429 61.9541 44.7434 40.8111 44.533 39.7436L43.3199 39.9969C43.3859 40.4123 43.3199 43.6108 43.192 47.9723L42.9939 47.8435L30.2193 67.5202L43.5345 74.644L37.3865 90.5034L10.0672 75.7573L28.5936 39.486C29.6283 37.4492 31.1135 35.6785 32.9347 34.3102C34.756 32.942 36.8648 32.0126 39.0988 31.5937L46.9014 30.115L46.6703 28.8688L38.8678 30.3642C36.4489 30.8196 34.1659 31.8274 32.1945 33.3101C30.2231 34.7928 28.6158 36.7109 27.4961 38.9169L8.40848 76.2765L38.0302 92.2646L45.0859 74.0625L31.9936 67.0841L43.1012 49.9371C42.9197 55.7524 42.6556 63.0964 42.4286 68.8577L42.3956 69.6885L76.2301 61.2687L71.6088 46.1114L85.4397 58.9633L76.882 65.5264L87.9773 81.1614L106.656 61.8918L78.2932 32.6447Z" fill="#B0E23C"/>
<path d="M48.1722 84.3391L44.1657 80.663L42.9568 79.5456L42.1728 78.827L39.433 86.2374L39.7961 87.7037L42.866 100.236L44.0213 97.9097L47.4625 90.9853L44.7846 84.8251L48.1722 84.3391ZM46.1091 90.952L43.5551 96.0945L43.2786 96.6552L40.7328 86.3205L42.7009 80.9995L43.7036 81.9175L45.4077 83.4751L43.1754 83.795L43.0104 83.8199L43.1177 84.065L46.1091 90.952Z" fill="#B0E23C"/>
<path d="M80.2862 68.3552L79.5105 69.2151L75.9744 73.1405L79.2093 73.6098L77.9714 76.4511L76.5273 79.7741L81.1197 89.0247L82.4483 83.6497L84.3257 76.0232L84.5815 74.9765L80.2862 68.3552ZM81.8376 80.9455L80.7318 85.44L77.8972 79.7367L78.9163 77.3898L80.9794 72.6046L78.4418 72.2432L80.1129 70.3823L83.2405 75.18L81.8376 80.9455Z" fill="#B0E23C"/>
<path d="M50.9161 176.592C47.3346 173.435 47.7761 161.862 50.8171 157.484C53.4166 153.746 55.2898 139.473 49.2698 134.223C47.281 132.491 46.204 130.385 46.072 127.992C45.7997 123.078 49.4266 118.023 52.5212 114.654C57.1466 109.607 53.6724 100.444 53.6353 100.352L54.7906 99.8954C54.9474 100.311 58.5866 109.865 53.4289 115.501C51.0316 118.118 47.0458 123.211 47.3057 127.921C47.3728 128.962 47.6539 129.978 48.1312 130.904C48.6085 131.83 49.2716 132.646 50.0785 133.301C56.6804 139.066 54.6833 154.115 51.8321 158.223C49.1584 162.066 48.655 172.965 51.7331 175.67L50.9161 176.592Z" fill="#BF5DF4"/>
<path d="M59.7215 175.981L58.6074 175.433C67.2723 157.571 70.2226 142.248 71.1839 132.549C72.4218 120.137 70.957 111.48 69.3272 107.842C65.5682 99.426 68.3493 88.7631 68.4689 88.3186L69.6655 88.6426C69.6366 88.7465 66.8804 99.3304 70.4577 107.335C73.9815 115.211 75.9909 142.36 59.7215 175.981Z" fill="#BF5DF4"/>
<path d="M56.3545 187.961L61.3059 175.084H43.2457L44.0709 191.284L44.1328 192.53H46.4022L46.8148 191.284L47.2604 189.946L49.4143 192.114H61.4338V187.961H56.3545ZM46.7199 187.637L45.5151 191.284H45.3088L44.5496 176.33H59.4986L54.5472 189.207H60.196V190.868H49.9301L46.7199 187.637Z" fill="#B0E23C"/>
<path d="M90.1889 187.545L95.1403 174.668H77.0801L77.9384 191.284L77.9796 192.114H80.249L80.5255 191.284L81.1072 189.531L83.2611 191.699H95.2682V187.545H90.1889ZM80.5543 187.221L79.3495 190.868H79.1432L78.384 175.915H93.333L88.3817 188.791H94.0304V190.453H83.7645L80.5543 187.221Z" fill="#B0E23C"/>
<path d="M50.1817 44.8032L49.1667 44.0887C50.0745 42.7844 50.4046 41.7086 50.1529 40.9858C50.0559 40.765 49.9122 40.568 49.7319 40.4088C49.5517 40.2495 49.3391 40.1317 49.1089 40.0636L49.4102 38.8549C49.8328 38.9738 50.2233 39.1873 50.5527 39.4793C50.882 39.7713 51.1417 40.1343 51.3123 40.5413C51.7332 41.6795 51.3536 43.1167 50.1817 44.8032Z" fill="#FCF467"/>
<path d="M35.8516 42.1279C33.1119 41.2099 32.1959 38.5266 32.1381 38.3895L33.3099 37.9741C33.3099 37.9741 34.0815 40.1881 36.1982 40.9067L35.8516 42.1279Z" fill="#FCF467"/>
<path d="M28.3007 57.6966L27.3104 56.949C27.8468 56.2262 32.6744 49.9414 36.3343 51.7816L35.7814 52.8948C33.4501 51.7151 29.5922 55.9645 28.3007 57.6966Z" fill="#FCF467"/>
<path d="M25.8208 50.4688L25.664 49.2226C28.4781 48.8695 29.2538 45.1851 29.262 45.1477L30.4751 45.3928C30.438 45.588 29.522 49.9994 25.8208 50.4688Z" fill="#FCF467"/>
<path d="M19.413 75.0472C18.856 73.9257 16.8796 73.4106 16.1657 73.3109L16.339 72.0648C16.4711 72.0856 19.5616 72.5508 20.5188 74.4823L19.413 75.0472Z" fill="#FCF467"/>
<path d="M18.6166 67.0052L18.0142 65.9169C18.0472 65.8961 21.41 63.977 21.41 61.4764H22.6479C22.6479 64.7123 18.7817 66.9138 18.6166 67.0052Z" fill="#FCF467"/>
<path d="M31.354 72.8997C30.3018 70.0793 24.6407 70.7979 24.5871 70.8228L24.4221 69.5767C24.6944 69.5434 31.1147 68.7459 32.5093 72.4843L31.354 72.8997Z" fill="#FCF467"/>
<path d="M29.456 84.115V82.8689C31.2344 82.8689 35.8516 82.3787 35.8516 80.1689H37.0894C37.0894 84.0693 29.7696 84.115 29.456 84.115Z" fill="#FCF467"/>
<path d="M24.7111 79.5043L23.5145 79.1761C23.6011 78.8563 24.4057 76.0483 25.9902 75.5291C26.3019 75.4333 26.633 75.4213 26.9507 75.4942C27.2685 75.567 27.5618 75.7222 27.8015 75.9444L27.0258 76.9164C26.6586 76.6215 26.4523 76.688 26.3739 76.7129C25.6683 76.9372 24.9669 78.4783 24.7111 79.5043Z" fill="#FCF467"/>
<path d="M54.2212 61.9541C51.5061 61.9541 48.3084 60.0474 48.1186 59.9353L48.754 58.8636C50.3384 59.8231 54.7699 61.8668 56.1811 59.8688L57.1879 60.5916C56.4823 61.5968 55.393 61.9541 54.2212 61.9541Z" fill="#FCF467"/>
<path d="M64.6687 48.878L63.5629 48.3214C63.6267 48.1932 63.6626 48.0528 63.6683 47.9096C63.674 47.7663 63.6493 47.6235 63.5959 47.4906C63.0843 46.0824 60.3445 44.6369 59.3336 44.2008L59.8205 43.0543C60.2331 43.2371 63.9466 44.8986 64.7719 47.0627C64.8807 47.356 64.9278 47.6688 64.91 47.9813C64.8923 48.2938 64.8101 48.5992 64.6687 48.878V48.878Z" fill="#FCF467"/>
<path d="M56.6474 54.0038C54.4812 54.0038 51.3536 51.8687 50.974 51.6029L51.6754 50.581C53.0701 51.5489 55.7397 52.9902 56.9528 52.7285C57.0436 52.7159 57.1305 52.6829 57.207 52.6318C57.2834 52.5807 57.3474 52.513 57.3943 52.4336L58.4588 53.0733C58.3244 53.2976 58.1448 53.4911 57.9316 53.6413C57.7184 53.7916 57.4763 53.8952 57.221 53.9456C57.0323 53.9851 56.8401 54.0046 56.6474 54.0038V54.0038Z" fill="#FCF467"/>
<path d="M66.3852 60.276L65.1474 60.1846C65.1762 59.7692 65.4816 56.1637 67.2104 54.7514C67.478 54.531 67.7884 54.3695 68.1217 54.2772C68.455 54.1849 68.8038 54.1639 69.1456 54.2156L68.9723 55.4617C68.7977 55.4346 68.6194 55.4454 68.4493 55.4934C68.2792 55.5414 68.1213 55.6255 67.9862 55.74C66.8721 56.6331 66.4512 59.3165 66.3852 60.276Z" fill="#FCF467"/>
<path d="M62.2218 37.4299C62.0498 37.4306 61.8792 37.3997 61.7184 37.3385C60.4475 36.865 59.8946 34.6385 59.7997 34.1982L61.0046 33.924C61.1902 34.7548 61.6936 36.001 62.1475 36.1713C62.1846 36.1713 62.2837 36.2211 62.5065 36.055L63.2492 37.0519C62.9577 37.2889 62.5964 37.4219 62.2218 37.4299V37.4299Z" fill="#FCF467"/>
<path d="M75.4627 35.7229H74.2248C74.2248 34.1777 71.1343 31.9263 69.1868 30.8713L69.7727 29.7747C70.3545 30.0903 75.4627 32.9399 75.4627 35.7229Z" fill="#FCF467"/>
<path d="M80.1501 48.5915C79.1515 47.4159 78.6935 46.2612 78.7967 45.1604C78.8685 44.3769 79.2345 43.6504 79.82 43.1292L80.5957 44.1012L80.2078 43.6152L80.5998 44.097C80.2661 44.4108 80.0614 44.8391 80.0263 45.2975C79.9685 46.0452 80.3234 46.8801 81.0908 47.7898L80.1501 48.5915Z" fill="#FCF467"/>
<path d="M95.2023 58.0164L94.0965 57.4598C95.0373 55.5657 91.0927 53.306 91.0514 53.306L91.6456 52.2094C91.8519 52.3215 96.6918 55.0381 95.2023 58.0164Z" fill="#FCF467"/>
<path d="M85.1344 54.8553C83.191 52.8988 84.9446 49.3057 85.0189 49.1521L86.1247 49.7087C85.7121 50.5394 84.9198 52.878 86.0091 53.9747L85.1344 54.8553Z" fill="#FCF467"/>
<path d="M83.9214 67.3419L83.0962 66.4114C83.3644 66.1705 85.7699 64.052 87.7216 64.5339C88.1323 64.6467 88.5072 64.8642 88.8101 65.1655C89.1129 65.4667 89.3335 65.8415 89.4504 66.2536L88.2951 66.669C87.998 65.8714 87.5689 65.7676 87.4286 65.7302C86.3104 65.4685 84.4784 66.8393 83.9214 67.3419Z" fill="#FCF467"/>
<path d="M88.5674 73.3897C88.2205 73.3898 87.8742 73.362 87.5317 73.3066L87.7339 72.0604C87.9113 72.0895 92.0994 72.7251 92.8008 68.8246L94.0387 69.0489C93.3991 72.5091 90.5892 73.3897 88.5674 73.3897Z" fill="#FCF467"/>
<path d="M96.2874 62.3656L95.4828 61.4185C95.6643 61.2607 97.3107 59.8899 98.8786 60.2098C99.2506 60.2918 99.5977 60.4619 99.8912 60.7061C100.185 60.9503 100.416 61.2615 100.566 61.6138L99.4604 62.1704C99.3891 61.9912 99.2775 61.8312 99.1343 61.7029C98.9911 61.5746 98.8202 61.4815 98.6352 61.431C97.8058 61.269 96.6587 62.0499 96.2874 62.3656Z" fill="#FCF467"/>
<path d="M67.363 22.7545C66.6652 22.2475 65.9188 21.8119 65.1349 21.4543C64.3097 21.0722 64.3097 21.0722 64.3097 19.5228C64.2606 18.1886 63.9914 16.8718 63.5133 15.6265C64.0167 13.5496 64.3757 8.00836 53.854 8.02082C53.854 8.02082 50.1157 7.09452 49.4431 10.0271C49.4431 10.0271 49.4431 10.0604 49.4431 10.0811C48.8077 13.0802 45.2922 12.158 44.1534 13.7614C43.0146 15.3648 43.5345 16.208 44.0214 18.1437C44.5083 20.0794 42.8908 19.4812 41.4962 20.5363C40.1015 21.5914 38.2901 23.0286 40.7039 24.2166L48.0361 25.7743L46.6869 28.4535C46.5194 28.7816 46.4206 29.1408 46.3966 29.5088C46.3726 29.8769 46.4239 30.246 46.5473 30.5933C46.6706 30.9406 46.8635 31.2588 47.1139 31.528C47.3643 31.7973 47.667 32.0119 48.0031 32.1587L53.6848 34.651C54.0248 34.7996 54.3911 34.8773 54.7618 34.8795C55.126 34.8783 55.4861 34.8026 55.8203 34.657C56.1546 34.5113 56.4559 34.2988 56.706 34.0322C56.956 33.7657 57.1497 33.4508 57.2751 33.1066C57.4005 32.7624 57.4551 32.3961 57.4355 32.03L57.1095 25.8283C57.4217 25.7829 57.7259 25.6934 58.0132 25.5624C58.9581 25.5915 60.9015 25.6081 61.6277 25.6081C65.5888 25.6081 67.7509 25.1429 68.0645 24.2166C68.1842 23.8594 68.1594 23.3235 67.363 22.7545ZM58.1328 24.0089C57.887 24.2312 57.5979 24.3996 57.2839 24.5033C56.9699 24.607 56.6379 24.6437 56.3091 24.6112C55.8182 24.5667 55.3376 24.4433 54.8855 24.2457V24.2457C54.7978 23.8082 54.5686 23.4124 54.2336 23.12C52.6409 21.6994 51.3164 20.5612 52.4346 19.4979C53.5528 18.4345 53.3259 17.0554 52.5419 15.9339C52.5341 15.9234 52.5272 15.9123 52.5213 15.9006C52.4366 15.7679 52.4003 15.6096 52.4186 15.4529C52.4369 15.2962 52.5087 15.1508 52.6217 15.0414C52.7347 14.9321 52.8819 14.8656 53.0382 14.8534C53.1945 14.8411 53.3501 14.8839 53.4785 14.9743L55.129 16.1499L59.7049 16.2911C59.7049 16.3368 59.7049 16.3866 59.7049 16.4365C59.7026 16.4558 59.7026 16.4753 59.7049 16.4946V16.5943C59.7073 16.615 59.7073 16.6359 59.7049 16.6566C59.7585 17.5289 59.7049 20.9683 58.8797 23.0868C58.6788 23.4306 58.427 23.7416 58.1328 24.0089V24.0089ZM55.5829 33.355C55.3808 33.498 55.1456 33.5862 54.8998 33.6109C54.6541 33.6357 54.4061 33.5962 54.18 33.4963L48.4983 31.004C48.3176 30.9247 48.1549 30.8091 48.0202 30.6642C47.8856 30.5193 47.7818 30.3482 47.7154 30.1615C47.6489 29.9747 47.6211 29.7762 47.6337 29.5782C47.6462 29.3802 47.699 29.1868 47.7886 29.0101L49.2946 26.0443L54.246 27.0952C54.5245 26.6169 54.729 26.0986 54.8525 25.5583C55.1829 25.6733 55.5225 25.7594 55.8676 25.8158V25.8158L56.1977 32.084C56.2115 32.331 56.1622 32.5776 56.0546 32.8001C55.947 33.0225 55.7846 33.2136 55.5829 33.355V33.355ZM59.709 24.3163C59.8239 24.1097 59.9259 23.896 60.0144 23.6766V23.6766C61.2811 21.5415 61.2522 18.5591 60.9716 16.3908V16.3409L62.4736 16.3866C62.8384 17.3935 63.0445 18.4517 63.0842 19.5228C63.0842 21.662 63.3524 21.9901 64.6109 22.5841C65.3268 22.9088 66.0084 23.3054 66.6451 23.768L66.7441 23.8428C65.8322 24.2374 62.618 24.3994 59.6884 24.2997L59.709 24.3163Z" fill="#B0E23C"/>
<path d="M152.416 25.9614C151.885 25.9614 151.367 26.1198 150.926 26.4165C150.485 26.7131 150.141 27.1348 149.938 27.6282C149.735 28.1215 149.682 28.6644 149.785 29.1882C149.889 29.7119 150.144 30.193 150.519 30.5706C150.894 30.9482 151.372 31.2054 151.892 31.3095C152.413 31.4137 152.952 31.3603 153.442 31.1559C153.932 30.9515 154.351 30.6055 154.646 30.1615C154.94 29.7175 155.098 29.1954 155.098 28.6614C155.097 27.9457 154.814 27.2596 154.311 26.7535C153.808 26.2474 153.127 25.9625 152.416 25.9614V25.9614ZM152.416 30.1153C152.13 30.1153 151.851 30.03 151.613 29.8703C151.376 29.7105 151.191 29.4834 151.081 29.2178C150.972 28.9521 150.943 28.6598 150.999 28.3778C151.055 28.0958 151.192 27.8367 151.394 27.6334C151.596 27.4301 151.854 27.2916 152.134 27.2355C152.414 27.1794 152.704 27.2082 152.968 27.3183C153.232 27.4283 153.458 27.6146 153.616 27.8537C153.775 28.0928 153.86 28.3739 153.86 28.6614C153.86 29.047 153.708 29.4168 153.437 29.6895C153.166 29.9621 152.799 30.1153 152.416 30.1153V30.1153Z" fill="#B0E23C"/>
<path d="M117.343 31.7766C116.894 31.7766 116.456 31.9106 116.082 32.1617C115.709 32.4127 115.418 32.7695 115.247 33.187C115.075 33.6044 115.03 34.0638 115.117 34.507C115.205 34.9501 115.421 35.3572 115.739 35.6767C116.056 35.9962 116.46 36.2138 116.9 36.302C117.341 36.3901 117.797 36.3449 118.212 36.1719C118.626 35.999 118.981 35.7062 119.23 35.3305C119.48 34.9548 119.613 34.5131 119.613 34.0612C119.612 33.4557 119.372 32.8752 118.947 32.447C118.521 32.0188 117.945 31.7777 117.343 31.7766V31.7766ZM117.343 35.0997C117.139 35.0997 116.94 35.0388 116.77 34.9247C116.6 34.8106 116.468 34.6484 116.39 34.4586C116.312 34.2689 116.292 34.0601 116.331 33.8587C116.371 33.6572 116.47 33.4722 116.614 33.3269C116.758 33.1817 116.942 33.0828 117.142 33.0427C117.342 33.0027 117.549 33.0232 117.738 33.1018C117.926 33.1804 118.088 33.3135 118.201 33.4843C118.314 33.6551 118.375 33.8559 118.375 34.0612C118.375 34.3367 118.266 34.6008 118.073 34.7955C117.879 34.9903 117.617 35.0997 117.343 35.0997V35.0997Z" fill="#B0E23C"/>
<path d="M149.527 71.238C148.752 71.238 147.994 71.4695 147.35 71.9031C146.705 72.3367 146.202 72.953 145.906 73.674C145.609 74.3951 145.531 75.1885 145.683 75.954C145.834 76.7195 146.207 77.4226 146.756 77.9745C147.304 78.5264 148.002 78.9022 148.763 79.0545C149.523 79.2067 150.311 79.1286 151.027 78.8299C151.744 78.5312 152.356 78.0255 152.786 77.3765C153.217 76.7276 153.447 75.9646 153.447 75.1842C153.446 74.1379 153.033 73.1348 152.298 72.395C151.563 71.6552 150.567 71.2391 149.527 71.238ZM149.527 77.8841C148.997 77.8841 148.478 77.7258 148.037 77.4291C147.596 77.1324 147.252 76.7108 147.049 76.2174C146.846 75.724 146.793 75.1812 146.897 74.6574C147 74.1337 147.256 73.6526 147.631 73.275C148.006 72.8974 148.484 72.6402 149.004 72.536C149.524 72.4319 150.064 72.4853 150.554 72.6897C151.044 72.894 151.463 73.2401 151.757 73.6841C152.052 74.1281 152.209 74.6501 152.209 75.1842C152.208 75.8999 151.925 76.586 151.423 77.0921C150.92 77.5982 150.238 77.883 149.527 77.8841V77.8841Z" fill="#B0E23C"/>
<path d="M118.581 88.684C117.806 88.684 117.048 88.9154 116.403 89.349C115.759 89.7826 115.256 90.3989 114.96 91.12C114.663 91.8411 114.585 92.6345 114.736 93.4C114.888 94.1654 115.261 94.8686 115.809 95.4205C116.357 95.9723 117.056 96.3482 117.816 96.5004C118.577 96.6527 119.365 96.5745 120.081 96.2759C120.797 95.9772 121.41 95.4714 121.84 94.8225C122.271 94.1735 122.501 93.4106 122.501 92.6301C122.5 91.5839 122.086 90.5808 121.352 89.841C120.617 89.1012 119.62 88.6851 118.581 88.684V88.684ZM118.581 95.3301C118.051 95.3301 117.532 95.1718 117.091 94.8751C116.65 94.5784 116.306 94.1567 116.103 93.6634C115.9 93.17 115.847 92.6271 115.951 92.1034C116.054 91.5796 116.309 91.0985 116.685 90.7209C117.06 90.3433 117.538 90.0862 118.058 89.982C118.578 89.8778 119.117 89.9313 119.607 90.1356C120.097 90.34 120.516 90.6861 120.811 91.1301C121.106 91.5741 121.263 92.0961 121.263 92.6301C121.262 93.3459 120.979 94.032 120.476 94.5381C119.974 95.0442 119.292 95.329 118.581 95.3301V95.3301Z" fill="#B0E23C"/>
<path d="M168.714 13.4999H137.578V0H136.34V13.4999H108.059V101.146H133.501L119.328 191.284L119.233 191.899L120.471 192.094L120.599 191.284L134.764 101.146H139.072L139.005 191.284V191.699H140.243V191.284L140.297 101.146H145.43L159.871 191.284L160.053 192.422L161.291 192.223L161.142 191.284L146.701 101.146H168.714V13.4999ZM167.476 99.8996H109.297V14.7461H167.476V99.8996Z" fill="#B0E23C"/>
<path d="M120.735 81.7598C121.086 81.9509 121.453 82.1461 121.837 82.3414C124.525 83.6675 127.28 84.8543 130.089 85.897L131.512 86.437C132.822 86.9272 134.181 87.427 135.589 87.9366L136.773 88.352L138.704 89.0498L139.08 89.1869L140.318 89.6355C141.473 90.0509 142.635 90.4663 143.804 90.8816L145.141 91.3759C147.761 92.3438 150.402 93.3532 153.022 94.4166C156.055 95.6627 158.089 96.2442 159.376 96.2442C160.173 96.2442 160.684 96.0158 160.965 95.5672C162.285 93.4363 156.426 87.571 142.727 75.0805L142.496 74.8686L141.023 73.5269L140.326 72.8956L139.501 72.1437L139.34 71.9983L139.088 71.7699L138.263 71.0056C136.394 69.3108 134.52 67.6077 132.705 65.9379C135.049 64.9202 137.297 63.969 139.418 63.0718L139.517 63.0302C139.864 62.8807 140.206 62.7395 140.545 62.5899C142.967 61.5681 145.174 60.6252 147.146 59.7445C147.851 59.4289 148.523 59.1201 149.164 58.8182C154.838 56.1432 157.866 54.0247 157.177 51.7069L155.989 52.0641C156.439 53.5761 153.336 55.4952 148.413 57.7964C147.833 58.0733 147.228 58.3502 146.598 58.6272C144.696 59.4787 142.587 60.3801 140.355 61.3272L139.757 61.5847L138.931 61.9253C137.075 62.7145 135.128 63.5453 133.093 64.4176L131.698 65.0199L131.286 64.6544C127.91 61.5348 124.795 58.569 122.332 56.0227C119.509 53.115 118.367 49.8792 118.94 46.4315C119.881 40.7366 125.253 35.1913 130.749 30.8754C131.075 30.6179 131.405 30.3645 131.731 30.1153C135.494 27.2819 139.472 24.7486 143.627 22.5387L143.066 21.4255C138.827 23.6577 134.771 26.2274 130.939 29.1101L129.957 29.8702C124.296 34.319 118.73 40.1177 117.719 46.2238C117.079 50.0869 118.334 53.6758 121.432 56.895C123.908 59.4538 127.04 62.4321 130.423 65.5641C127.861 66.6856 125.191 67.8902 122.435 69.1862C117.484 71.5123 115.251 73.6848 115.363 76.0192C115.486 78.0878 117.455 79.9363 120.735 81.7598ZM122.971 70.3493C125.056 69.3634 127.091 68.4316 129.074 67.5537L131.413 66.5277C133.555 68.4967 135.779 70.5154 137.986 72.5176L138.642 73.1157L139.08 73.5311L140.297 74.636L141.052 75.3214L141.312 75.5582L142.781 76.8915C146.932 80.6757 150.93 84.3684 153.975 87.434C160.098 93.5899 159.971 94.7904 159.884 94.9649C159.859 94.9939 159.182 95.6502 153.455 93.3241C150.604 92.1652 147.732 91.0769 144.885 90.026L143.569 89.515L140.305 88.3312L139.109 87.9158H139.067L136.942 87.1183L135.758 86.7029C134.723 86.329 133.695 85.9511 132.705 85.5772C132.239 85.4069 131.777 85.2324 131.319 85.058C128.244 83.931 125.231 82.643 122.29 81.1991C121.911 81.008 121.544 80.8128 121.197 80.6175C118.4 79.064 116.658 77.5312 116.588 76.0109C116.526 74.2746 118.668 72.3763 122.971 70.3493V70.3493Z" fill="#B0E23C"/>
<path d="M166.444 190.453C166.444 190.453 169.333 180.068 178.823 177.576C188.313 175.084 198.628 184.222 201.929 177.576C205.23 170.93 198.628 154.73 208.119 158.053C217.609 161.376 211.007 179.238 219.259 181.73C227.512 184.222 227.099 192.53 227.099 192.53H166.519L166.444 190.453Z" fill="#B0E23C"/>
<path d="M12.3324 192.53C13.5703 192.945 39.2762 192.53 39.2762 192.53C39.2762 192.53 40.3903 185.053 32.9632 182.976C25.5361 180.899 26.774 181.314 26.3613 170.93C25.9487 160.545 23.8857 144.345 17.6964 152.653C11.5072 160.961 14.8081 170.93 9.03149 175.914C3.25487 180.899 0.779175 183.391 0.779175 192.53H12.3324Z" fill="#B0E23C"/>
<path d="M232.166 86.304L207.628 103.966L190.079 79.2591L214.622 61.597L232.166 86.304Z" fill="#FCF467"/>
<path d="M149.123 58.8556L148.384 58.3572V57.8338C148.278 55.2255 147.671 52.6627 146.598 50.2863C147.943 49.0401 149.238 47.8355 150.468 46.7057C156.806 40.8903 160.631 37.3637 159.748 34.9213C159.224 33.4882 157.223 32.7737 153.266 32.6076C147.018 32.3464 140.761 32.7544 134.599 33.8246L131.711 30.1485L131.467 29.8411C131.273 29.596 131.087 29.3634 130.918 29.1433C130.171 28.2045 129.602 27.4817 129.214 27.0165C128.529 26.1858 128.245 25.8368 127.749 26.219C127.254 26.6011 127.448 26.921 128.385 28.2004L128.505 28.109C128.839 28.5244 129.301 29.0976 129.936 29.9034L130.753 30.9087C131.43 31.7685 132.255 32.8194 133.229 34.0988C127.452 35.3449 122.947 37.3554 122.171 40.3295C121.395 43.3037 124.395 46.5603 131.083 49.9872C134.331 51.6487 137.355 53.2563 140.124 54.8139C136.999 57.9439 134.044 61.2399 131.269 64.6876C130.526 65.6222 129.788 66.5776 129.066 67.5537C126.65 70.8012 124.478 74.2251 122.567 77.7971C122.026 78.8148 121.577 79.7452 121.205 80.6009C121.028 81.0163 120.871 81.3901 120.727 81.7598C118.957 86.3831 119.774 88.406 120.95 89.2367C121.602 89.6854 122.38 89.9111 123.169 89.8806C125.418 89.8806 128.434 88.5181 131.492 86.4204C131.904 86.1421 132.317 85.8472 132.73 85.544C134.026 84.5732 135.265 83.5289 136.443 82.4161C136.949 81.9398 137.443 81.4525 137.925 80.954C137.953 80.9249 137.982 80.9 138.007 80.8709C138.366 80.4971 138.721 80.1191 139.072 79.7286C139.492 79.2606 139.905 78.7815 140.309 78.2914C140.722 77.7888 141.135 77.2737 141.527 76.7503C141.688 76.5426 141.844 76.3349 141.993 76.1189C142.141 75.9029 142.373 75.5956 142.554 75.3297L142.715 75.1012C145.863 70.478 148.079 65.211 148.355 59.8401C153.851 63.6034 157.33 67.1384 158.101 70.64C158.609 72.9579 157.941 75.2632 156.038 77.7015L157.012 78.4658C159.141 75.7285 159.9 73.0659 159.294 70.3783C158.465 66.536 154.9 62.8184 149.123 58.8556ZM147.097 57.5305C145.579 56.5586 143.935 55.5658 142.166 54.5523C143.338 53.3947 144.491 52.287 145.624 51.2292C146.467 53.23 146.966 55.361 147.097 57.5305V57.5305ZM153.216 33.8537C157.256 34.024 158.357 34.7593 158.58 35.3491C159.178 37.0106 154.755 41.0772 149.63 45.7877C148.478 46.8427 147.276 47.9504 146.024 49.1107C145.394 47.917 144.661 46.7813 143.833 45.7171C140.532 41.4275 137.743 37.8275 135.465 34.9171C141.33 33.9483 147.279 33.592 153.216 33.8537V33.8537ZM131.653 48.874C125.641 45.7918 122.777 42.9465 123.376 40.6452C124.007 38.2152 128.278 36.346 134.083 35.1829C136.229 37.9328 139.076 41.6048 142.851 46.4897C143.702 47.5871 144.447 48.7638 145.075 50.0038C143.763 51.25 142.414 52.5376 141.048 53.8959C138.18 52.2884 135.057 50.6186 131.653 48.874ZM142.265 73.5436C142.108 73.7886 141.952 74.0296 141.787 74.2663C141.622 74.5031 141.432 74.7897 141.25 75.0472L141.069 75.2965C140.821 75.6412 140.569 75.9819 140.314 76.3142C139.901 76.8375 139.488 77.336 139.076 77.8345C138.816 78.1502 138.548 78.4575 138.275 78.7608C137.896 79.1762 137.512 79.5915 137.12 80.0069L136.773 80.36C135.102 82.074 133.283 83.6364 131.339 85.0289C130.927 85.3363 130.493 85.6187 130.081 85.8846C126.235 88.352 123.008 89.2077 121.692 88.2357C120.615 87.4464 120.69 85.3612 121.841 82.3289C121.981 81.9551 122.138 81.5688 122.311 81.17C122.691 80.3018 123.136 79.3672 123.669 78.3745C125.908 74.2047 128.501 70.2369 131.418 66.5153C131.968 65.8147 132.518 65.1224 133.068 64.4384C135.742 61.1776 138.519 58.1827 141.25 55.437C143.156 56.5295 144.931 57.597 146.556 58.6479L147.13 59.0218C147.13 59.271 147.122 59.5202 147.105 59.7695C146.845 64.5921 144.984 69.315 142.265 73.5436Z" fill="#FCF467"/>
<path d="M218.785 101.038L209.934 87.4713L197.502 95.6918L190.195 100.523L203.064 120.253L222.8 107.206L218.785 101.038ZM191.907 100.88L198.22 96.7053L209.563 89.1993L217.762 101.765L221.062 106.841L203.394 118.521L191.907 100.88Z" fill="#B0E23C"/>
</svg>
